<svg width="23" height="22" viewBox="0 0 23 22" fill="none" xmlns="http://www.w3.org/2000/svg">
<mask id="mask0_33223_784" style="mask-type:luminance" maskUnits="userSpaceOnUse" x="0" y="0" width="23" height="22">
<path fill-rule="evenodd" clip-rule="evenodd" d="M0.625 0H22.118V21.4938H0.625V0Z" fill="white"/>
</mask>
<g mask="url(#mask0_33223_784)">
<path fill-rule="evenodd" clip-rule="evenodd" d="M5.73344 18.675C6.31344 18.675 6.86044 18.895 7.43944 19.128C10.9864 20.768 15.1814 20.022 17.9144 17.29C21.5204 13.682 21.5204 7.813 17.9144 4.207C16.1684 2.461 13.8464 1.5 11.3744 1.5C8.90144 1.5 6.57844 2.462 4.83344 4.208C2.09944 6.94 1.35544 11.135 2.98044 14.648C3.21444 15.227 3.44044 15.791 3.44044 16.377C3.44044 16.962 3.23944 17.551 3.06244 18.071C2.91644 18.499 2.69544 19.145 2.83744 19.287C2.97644 19.431 3.62644 19.204 4.05544 19.057C4.57044 18.881 5.15444 18.679 5.73344 18.675ZM11.3494 21.494C9.82144 21.494 8.28344 21.171 6.84444 20.505C6.42044 20.335 6.02344 20.175 5.73844 20.175C5.41044 20.177 4.96944 20.329 4.54344 20.476C3.66944 20.776 2.58144 21.15 1.77644 20.348C0.974437 19.545 1.34444 18.46 1.64244 17.587C1.78944 17.157 1.94044 16.713 1.94044 16.377C1.94044 16.101 1.80744 15.749 1.60344 15.242C-0.269563 11.197 0.596437 6.322 3.77344 3.147C5.80144 1.118 8.50044 0 11.3734 0C14.2464 0 16.9464 1.117 18.9744 3.146C23.1664 7.338 23.1664 14.158 18.9744 18.35C16.9194 20.406 14.1524 21.494 11.3494 21.494Z" fill="#9E9E9E"/>
</g>
<path fill-rule="evenodd" clip-rule="evenodd" d="M15.3213 12.1631C14.7693 12.1631 14.3173 11.7161 14.3173 11.1631C14.3173 10.6101 14.7603 10.1631 15.3123 10.1631H15.3213C15.8733 10.1631 16.3213 10.6101 16.3213 11.1631C16.3213 11.7161 15.8733 12.1631 15.3213 12.1631Z" fill="#9E9E9E"/>
<path fill-rule="evenodd" clip-rule="evenodd" d="M11.3125 12.1631C10.7605 12.1631 10.3085 11.7161 10.3085 11.1631C10.3085 10.6101 10.7505 10.1631 11.3035 10.1631H11.3125C11.8645 10.1631 12.3125 10.6101 12.3125 11.1631C12.3125 11.7161 11.8645 12.1631 11.3125 12.1631Z" fill="#9E9E9E"/>
<path fill-rule="evenodd" clip-rule="evenodd" d="M7.30332 12.1631C6.75132 12.1631 6.29932 11.7161 6.29932 11.1631C6.29932 10.6101 6.74232 10.1631 7.29432 10.1631H7.30332C7.85532 10.1631 8.30332 10.6101 8.30332 11.1631C8.30332 11.7161 7.85532 12.1631 7.30332 12.1631Z" fill="#9E9E9E"/>
</svg>
