<svg width="23" height="24" viewBox="0 0 23 24" fill="none" xmlns="http://www.w3.org/2000/svg">
<path fill-rule="evenodd" clip-rule="evenodd" d="M11.2877 23.6667C9.70691 23.6667 8.16574 23.6492 6.64091 23.6177C4.69024 23.5792 3.34041 22.3145 3.11991 20.3172C2.75241 17.0038 2.12357 9.19418 2.11774 9.11601C2.07807 8.63418 2.43741 8.21184 2.91924 8.17334C3.39407 8.16051 3.82341 8.49418 3.86191 8.97484C3.86774 9.05418 4.49541 16.837 4.85941 20.1247C4.98424 21.2598 5.59674 21.8455 6.67707 21.8677C9.59374 21.9295 12.5699 21.933 15.7782 21.8747C16.9262 21.8525 17.5469 21.2785 17.6752 20.1165C18.0369 16.8568 18.6669 9.05418 18.6739 8.97484C18.7124 8.49418 19.1382 8.15818 19.6154 8.17334C20.0972 8.21301 20.4566 8.63418 20.4181 9.11601C20.4111 9.19535 19.7787 17.0248 19.4147 20.309C19.1884 22.3472 17.8421 23.5873 15.8097 23.6247C14.2546 23.6515 12.7542 23.6667 11.2877 23.6667" fill="#212121"/>
<path fill-rule="evenodd" clip-rule="evenodd" d="M21.1593 6.15381H1.375C0.892 6.15381 0.5 5.76181 0.5 5.27881C0.5 4.79581 0.892 4.40381 1.375 4.40381H21.1593C21.6423 4.40381 22.0343 4.79581 22.0343 5.27881C22.0343 5.76181 21.6423 6.15381 21.1593 6.15381" fill="#212121"/>
<path fill-rule="evenodd" clip-rule="evenodd" d="M17.3472 6.154C16.0195 6.154 14.8668 5.20783 14.6055 3.90583L14.322 2.48716C14.2625 2.27133 14.0163 2.0835 13.7363 2.0835H8.79784C8.51784 2.0835 8.27168 2.27133 8.20051 2.54083L7.92868 3.90583C7.66851 5.20783 6.51468 6.154 5.18701 6.154C4.70401 6.154 4.31201 5.762 4.31201 5.279C4.31201 4.796 4.70401 4.404 5.18701 4.404C5.68401 4.404 6.11568 4.04933 6.21368 3.56166L6.49718 2.143C6.78534 1.05566 7.72684 0.333496 8.79784 0.333496H13.7363C14.8073 0.333496 15.7488 1.05566 16.0253 2.0905L16.3217 3.56166C16.4185 4.04933 16.8502 4.404 17.3472 4.404C17.8302 4.404 18.2222 4.796 18.2222 5.279C18.2222 5.762 17.8302 6.154 17.3472 6.154" fill="#212121"/>
</svg>
