<svg width="22" height="25" viewBox="0 0 22 25" fill="none" xmlns="http://www.w3.org/2000/svg">
<path fill-rule="evenodd" clip-rule="evenodd" d="M20.6683 4.61696C21.1222 4.61696 21.5 4.99379 21.5 5.47328V5.91661C21.5 6.38444 21.1222 6.77294 20.6683 6.77294H1.33283C0.877837 6.77294 0.5 6.38444 0.5 5.91661V5.47328C0.5 4.99379 0.877837 4.61696 1.33283 4.61696H4.73449C5.42549 4.61696 6.02685 4.1258 6.1823 3.4328L6.36044 2.63714C6.63729 1.55332 7.54841 0.833496 8.59115 0.833496H13.4088C14.4402 0.833496 15.3616 1.55332 15.6282 2.57998L15.8188 3.43164C15.9731 4.1258 16.5745 4.61696 17.2666 4.61696H20.6683ZM18.9401 20.8232C19.2953 17.5134 19.9171 9.65014 19.9171 9.57081C19.9398 9.33048 19.8615 9.10298 19.706 8.91982C19.5392 8.74832 19.3282 8.64682 19.0956 8.64682H2.91328C2.67954 8.64682 2.45715 8.74832 2.30284 8.91982C2.14626 9.10298 2.0691 9.33048 2.08045 9.57081C2.08253 9.58539 2.10484 9.86236 2.14214 10.3254C2.30785 12.3825 2.76936 18.112 3.06759 20.8232C3.27863 22.8205 4.58915 24.0758 6.48741 24.1213C7.95223 24.1552 9.46131 24.1668 11.0044 24.1668C12.4579 24.1668 13.9341 24.1552 15.4443 24.1213C17.4084 24.0875 18.7177 22.8543 18.9401 20.8232Z" fill="white"/>
</svg>
