<svg width="28" height="30" viewBox="0 0 28 30" fill="none" xmlns="http://www.w3.org/2000/svg">
<path fill-rule="evenodd" clip-rule="evenodd" d="M6.66517 12.3169C7.16225 5.15512 9.93432 0 13.511 0C15.2531 0 16.8079 1.22741 18.0043 3.31626C17.223 3.48067 16.4499 3.68058 15.6877 3.91532C15.0022 2.8602 14.2427 2.25213 13.511 2.25213C11.9446 2.25213 10.2557 4.99972 9.42568 9.16728C9.4885 9.12852 9.55036 9.08947 9.61198 9.05056C9.75448 8.96059 9.89565 8.87146 10.0441 8.78892C13.3815 6.91065 16.8495 5.66973 19.8158 5.29587C23.1254 4.8781 25.5056 5.59991 26.5263 7.31941C27.3829 8.76077 27.117 10.6672 25.8154 12.765C25.3068 12.2065 24.7322 11.6525 24.1276 11.1064C24.7184 9.99381 24.8767 9.04341 24.5241 8.44547C24.1323 7.7856 23.0711 7.43427 21.5717 7.43427C21.0823 7.43613 20.5935 7.46848 20.1082 7.53111C17.4391 7.86893 14.2739 9.0085 11.199 10.7381C10.4533 11.1738 9.72413 11.6358 9.01299 12.1232C8.95057 12.8225 8.90549 13.5353 8.89624 14.283C8.06046 13.64 7.30674 12.9813 6.66517 12.3169ZM0.496772 7.31941C1.3499 5.88143 3.16481 5.15061 5.67217 5.19453C5.42825 5.90733 5.22017 6.66404 5.03984 7.46017C3.77055 7.5221 2.84922 7.85654 2.50242 8.44547C1.99147 9.30353 2.51052 10.8643 3.89309 12.6277C5.52304 14.7098 8.11941 16.8076 11.199 18.5395C11.9483 18.963 12.7167 19.3538 13.5017 19.7106C14.1699 19.4021 14.8427 19.0721 15.5108 18.7084C15.3398 19.8074 15.1143 20.7612 14.8612 21.5799C13.7006 22.1294 12.5399 22.6001 11.4071 22.9784L10.6441 23.2082C9.86728 23.4446 9.18986 23.6214 8.57487 23.7487C8.57234 23.7493 8.56989 23.75 8.56748 23.7506C8.55341 23.7544 8.54113 23.7577 8.52632 23.7577L8.27316 23.8106C7.91249 23.8804 7.55991 23.9367 7.20733 23.9818C6.59696 24.0606 6.01087 24.1 5.46409 24.1C3.06193 24.1 1.32793 23.3613 0.496772 21.9582C-0.360977 20.5146 -0.0950978 18.6116 1.20193 16.5171C1.74126 17.0924 2.30631 17.6443 2.89546 18.1713C2.30359 19.2838 2.14522 20.2342 2.50242 20.8322C3.0076 21.6902 4.65489 22.0325 6.90908 21.7477C8.0882 21.5979 9.3702 21.277 10.6938 20.8322C10.5936 20.7776 10.4926 20.7257 10.392 20.674C10.2745 20.6136 10.1576 20.5535 10.043 20.4898C6.70563 18.6104 3.86997 16.3054 2.05505 13.9925C1.85622 13.7413 1.69785 13.5128 1.55335 13.2977C-0.0453903 10.9881 -0.432649 8.88463 0.496772 7.31941ZM16.1258 10.9127C17.1142 10.5309 18.0806 10.2269 18.9927 10.0197C21.4492 11.6345 23.5311 13.4553 24.9669 15.2852C26.9945 17.8672 27.5459 20.2387 26.5252 21.9582C25.694 23.3613 23.96 24.1 21.5579 24.1C21.5261 24.1 21.4911 24.0969 21.4561 24.0938C21.4212 24.0907 21.3862 24.0876 21.3544 24.0876C21.6033 23.3464 21.8129 22.5932 21.9821 21.831C23.2606 21.769 24.1681 21.4256 24.5241 20.8322C25.0293 19.9741 24.5114 18.4134 23.1335 16.6488C22.4121 15.7345 21.4816 14.8145 20.4238 13.9215C20.4258 14.0257 20.4304 14.1282 20.4349 14.2305C20.4409 14.3659 20.447 14.5009 20.447 14.6388C20.447 22.5077 17.7963 28.5434 14.1791 29.2112C13.9618 29.2551 13.7422 29.2776 13.511 29.2776C11.7689 29.2776 10.2141 28.0502 9.01762 25.9614C9.77248 25.8071 10.5482 25.5999 11.3342 25.3589C12.0197 26.4231 12.7792 27.0255 13.511 27.0255C13.6416 27.0255 13.7861 27.0041 13.9271 26.9591C15.9906 26.3476 18.135 21.2803 18.135 14.6388C18.135 13.7549 18.0806 12.9193 18.009 12.1007C17.4032 11.6964 16.7801 11.291 16.1258 10.9127Z" fill="url(#paint0_linear_101_21796)"/>
<circle cx="12.9615" cy="14.5196" r="7.50349" fill="white"/>
<path d="M15.5649 18.1251L14.8328 17.3921C14.5762 17.5888 14.29 17.7428 13.974 17.8538C13.6611 17.9649 13.331 18.0204 12.9837 18.0204C12.5395 18.0204 12.1218 17.9316 11.7307 17.7539C11.3396 17.573 10.9955 17.3255 10.6983 17.0113C10.4011 16.694 10.168 16.3259 9.99903 15.907C9.83008 15.4881 9.74561 15.0407 9.74561 14.5647C9.74561 14.0887 9.83008 13.6428 9.99903 13.2271C10.168 12.8082 10.4011 12.4401 10.6983 12.1228C10.9955 11.8054 11.3396 11.5579 11.7307 11.3802C12.1218 11.1993 12.5395 11.1089 12.9837 11.1089C13.4311 11.1089 13.8504 11.1993 14.2415 11.3802C14.6325 11.5579 14.9767 11.8054 15.2739 12.1228C15.5711 12.4401 15.8027 12.8082 15.9685 13.2271C16.1374 13.6428 16.2219 14.0887 16.2219 14.5647C16.2219 14.9359 16.1687 15.2898 16.0623 15.6261C15.956 15.9593 15.8105 16.2671 15.6259 16.5496L16.3721 17.3064L15.5649 18.1251ZM12.9837 16.859C13.1652 16.859 13.3435 16.832 13.5187 16.7781C13.6939 16.7209 13.8551 16.6416 14.0021 16.5401L13.4061 15.9355L14.2133 15.1121L14.7718 15.6833C14.8719 15.5182 14.947 15.3405 14.997 15.1501C15.0502 14.9597 15.0768 14.7646 15.0768 14.5647C15.0768 14.2473 15.0221 13.9506 14.9126 13.6745C14.8031 13.3985 14.6513 13.1557 14.4573 12.9462C14.2665 12.7336 14.0444 12.5686 13.7909 12.4512C13.5406 12.3306 13.2716 12.2703 12.9837 12.2703C12.6959 12.2703 12.4253 12.3306 12.1719 12.4512C11.9184 12.5718 11.6947 12.7384 11.5008 12.951C11.3099 13.1605 11.1598 13.4032 11.0502 13.6793C10.9439 13.9554 10.8907 14.2505 10.8907 14.5647C10.8907 14.8788 10.9454 15.1755 11.0549 15.4548C11.1644 15.7309 11.3146 15.9752 11.5055 16.1878C11.6994 16.3973 11.9216 16.5623 12.1719 16.6829C12.4253 16.8003 12.6959 16.859 12.9837 16.859Z" fill="url(#paint1_linear_101_21796)"/>
<defs>
<linearGradient id="paint0_linear_101_21796" x1="13.5128" y1="0" x2="13.5128" y2="29.2776" gradientUnits="userSpaceOnUse">
<stop stop-color="#7E92F8"/>
<stop offset="1" stop-color="#6972F0"/>
</linearGradient>
<linearGradient id="paint1_linear_101_21796" x1="13.0588" y1="11.1089" x2="13.0588" y2="18.1251" gradientUnits="userSpaceOnUse">
<stop stop-color="#7E92F8"/>
<stop offset="1" stop-color="#6972F0"/>
</linearGradient>
</defs>
</svg>
