<svg width="20" height="21" viewBox="0 0 20 21" fill="none" xmlns="http://www.w3.org/2000/svg">
<path d="M15.9999 13.0001C15.4091 13.004 14.8265 13.1388 14.2939 13.3947C13.7614 13.6506 13.2921 14.0213 12.9199 14.4801L7.81991 12.1301C8.05969 11.3959 8.05969 10.6044 7.81991 9.87011L12.9199 7.52011C13.5215 8.24608 14.3602 8.73619 15.2881 8.90395C16.2159 9.07172 17.1731 8.90634 17.9909 8.43702C18.8086 7.96769 19.4343 7.22459 19.7575 6.33886C20.0806 5.45312 20.0805 4.4817 19.7572 3.59602C19.4339 2.71035 18.8081 1.96736 17.9902 1.49818C17.1724 1.02901 16.2151 0.863808 15.2873 1.03174C14.3596 1.19967 13.5209 1.68993 12.9194 2.41601C12.318 3.14208 11.9923 4.05729 11.9999 5.00011C12.0029 5.23835 12.0263 5.47588 12.0699 5.71011L6.78991 8.14011C6.22699 7.58969 5.51415 7.21763 4.74071 7.07054C3.96727 6.92345 3.16762 7.00788 2.44196 7.31325C1.71629 7.61861 1.09687 8.13133 0.661306 8.78718C0.225744 9.44302 -0.0065918 10.2128 -0.0065918 11.0001C-0.0065918 11.7874 0.225744 12.5572 0.661306 13.2131C1.09687 13.8689 1.71629 14.3816 2.44196 14.687C3.16762 14.9923 3.96727 15.0768 4.74071 14.9297C5.51415 14.7826 6.22699 14.4105 6.78991 13.8601L12.0699 16.2901C12.0263 16.5243 12.0029 16.7619 11.9999 17.0001C11.9999 17.7912 12.2345 18.5646 12.674 19.2224C13.1136 19.8802 13.7383 20.3929 14.4692 20.6956C15.2001 20.9984 16.0043 21.0776 16.7803 20.9233C17.5562 20.7689 18.2689 20.388 18.8283 19.8285C19.3877 19.2691 19.7687 18.5564 19.923 17.7805C20.0774 17.0046 19.9982 16.2003 19.6954 15.4694C19.3927 14.7385 18.88 14.1138 18.2222 13.6742C17.5644 13.2347 16.791 13.0001 15.9999 13.0001ZM15.9999 3.00011C16.3955 3.00011 16.7822 3.11741 17.111 3.33718C17.4399 3.55694 17.6963 3.8693 17.8477 4.23475C17.999 4.6002 18.0386 5.00233 17.9615 5.3903C17.8843 5.77826 17.6938 6.13462 17.4141 6.41433C17.1344 6.69403 16.778 6.88451 16.3901 6.96169C16.0021 7.03886 15.6 6.99925 15.2345 6.84787C14.8691 6.6965 14.5567 6.44015 14.337 6.11125C14.1172 5.78236 13.9999 5.39568 13.9999 5.00011C13.9999 4.46968 14.2106 3.96097 14.5857 3.5859C14.9608 3.21083 15.4695 3.00011 15.9999 3.00011ZM3.99991 13.0001C3.60434 13.0001 3.21766 12.8828 2.88877 12.6631C2.55987 12.4433 2.30352 12.1309 2.15215 11.7655C2.00077 11.4 1.96116 10.9979 2.03834 10.6099C2.11551 10.222 2.30599 9.86561 2.58569 9.5859C2.8654 9.3062 3.22176 9.11571 3.60973 9.03854C3.99769 8.96137 4.39982 9.00098 4.76527 9.15236C5.13073 9.30373 5.44308 9.56008 5.66285 9.88897C5.88261 10.2179 5.99991 10.6046 5.99991 11.0001C5.99991 11.5305 5.78919 12.0393 5.41412 12.4143C5.03905 12.7894 4.53034 13.0001 3.99991 13.0001ZM15.9999 19.0001C15.6043 19.0001 15.2177 18.8828 14.8888 18.6631C14.5599 18.4433 14.3035 18.1309 14.1521 17.7655C14.0008 17.4 13.9612 16.9979 14.0383 16.6099C14.1155 16.222 14.306 15.8656 14.5857 15.5859C14.8654 15.3062 15.2218 15.1157 15.6097 15.0385C15.9977 14.9614 16.3998 15.001 16.7653 15.1524C17.1307 15.3037 17.4431 15.5601 17.6628 15.889C17.8826 16.2179 17.9999 16.6046 17.9999 17.0001C17.9999 17.5305 17.7892 18.0393 17.4141 18.4143C17.039 18.7894 16.5303 19.0001 15.9999 19.0001Z" fill="#BDBDBD"/>
</svg>
