<svg width="24" height="23" viewBox="0 0 24 23" fill="none" xmlns="http://www.w3.org/2000/svg">
<path fill-rule="evenodd" clip-rule="evenodd" d="M23.0433 0.697992C22.9885 0.595326 22.9057 0.511326 22.803 0.456492C20.3693 -0.838507 5.8105 3.67416 2.0445 5.84649C1.06333 6.41233 0.625834 7.07733 0.746 7.81933C1.0925 9.96833 6.88267 11.597 10.0245 12.3262L15.9243 6.42749C16.2662 6.08566 16.8203 6.08566 17.1622 6.42749C17.504 6.76933 17.504 7.32349 17.1622 7.66533L11.2052 13.62C11.953 16.7945 13.5642 22.412 15.6793 22.7527C15.7587 22.7655 15.838 22.7725 15.9162 22.7725C16.5625 22.7725 17.1458 22.3292 17.651 21.4542C19.8233 17.6917 24.3395 3.13516 23.0433 0.697992Z" fill="white"/>
</svg>
