<svg width="17" height="20" viewBox="0 0 17 20" fill="none" xmlns="http://www.w3.org/2000/svg">
<path fill-rule="evenodd" clip-rule="evenodd" d="M8.26402 10.619H8.29602C11.224 10.619 13.605 8.238 13.605 5.31C13.605 2.382 11.224 0 8.29602 0C5.36702 0 2.98502 2.382 2.98502 5.307C2.97502 8.227 5.34202 10.61 8.26402 10.619ZM4.41302 5.31C4.41302 3.169 6.15502 1.428 8.29602 1.428C10.436 1.428 12.177 3.169 12.177 5.31C12.177 7.45 10.436 9.192 8.29602 9.192H8.26702C6.13502 9.184 4.40602 7.444 4.41302 5.31Z" fill="#9E9E9E"/>
<path fill-rule="evenodd" clip-rule="evenodd" d="M0.375 16.1733C0.375 19.8703 6.337 19.8703 8.296 19.8703C11.695 19.8703 16.215 19.4893 16.215 16.1933C16.215 12.4963 10.255 12.4963 8.296 12.4963C4.896 12.4963 0.375 12.8773 0.375 16.1733ZM1.875 16.1733C1.875 14.7283 4.035 13.9963 8.296 13.9963C12.556 13.9963 14.715 14.7353 14.715 16.1933C14.715 17.6383 12.556 18.3703 8.296 18.3703C4.035 18.3703 1.875 17.6313 1.875 16.1733Z" fill="#9E9E9E"/>
</svg>
